<?xml version="1.0" encoding="UTF-8"?> <svg xmlns="http://www.w3.org/2000/svg" width="37" height="40" viewBox="0 0 37 40" fill="none"> <g clip-path="url(#clip0)"> <path d="M14.1075 20.68L12.0598 21.7434L14.8816 27.177L11.0987 29.1415L3.10547 13.75L9.28088 10.5429C11.1418 9.57651 12.8071 9.22614 14.277 9.49181C15.7469 9.75749 16.8661 10.6303 17.6347 12.1103C18.191 13.1815 18.4295 14.1851 18.35 15.1212C18.2777 16.0535 17.8844 16.9826 17.1701 17.9083L23.669 22.4121L23.7513 22.5706L19.699 24.6751L14.1075 20.68ZM10.572 18.8787L12.9646 17.6361C13.6831 17.263 14.1268 16.7999 14.2957 16.2469C14.4682 15.6831 14.3824 15.0699 14.0383 14.4075C13.6943 13.745 13.2421 13.3222 12.6817 13.139C12.1176 12.9487 11.4799 13.0383 10.7686 13.4077L8.37607 14.6502L10.572 18.8787Z" fill="#C4C4C4"></path> <path d="M28.1565 0.740356L33.3883 10.8146C33.9812 11.9563 34.2476 13.0752 34.1874 14.1713C34.1235 15.2603 33.7416 16.264 33.0416 17.1823C32.3417 18.1006 31.3594 18.888 30.0949 19.5448C28.1837 20.5373 26.426 20.8327 24.8216 20.4311C23.2173 20.0294 21.9651 18.9885 21.0652 17.3083L15.7949 7.1601L19.5993 5.18437L24.908 15.4066C25.8258 17.0685 27.0607 17.4965 28.6126 16.6906C29.3958 16.2839 29.8787 15.7646 30.0615 15.1328C30.2443 14.501 30.0886 13.7094 29.5945 12.758L24.3736 2.7049L28.1565 0.740356Z" fill="#C4C4C4"></path> <path fill-rule="evenodd" clip-rule="evenodd" d="M19.6993 24.675L14.1077 20.6799L12.06 21.7433L14.8818 27.1768L11.099 29.1414L3.10573 13.7499L9.28113 10.5428C11.142 9.57639 12.8074 9.22602 14.2773 9.4917C15.7472 9.75738 16.8664 10.6302 17.635 12.1102C18.1913 13.1814 18.4297 14.185 18.3502 15.1211C18.2896 15.9036 18.0028 16.6837 17.4899 17.4615C17.3917 17.6105 17.2852 17.7594 17.1704 17.9082L23.6692 22.412L23.7516 22.5705L19.6993 24.675ZM17.9414 17.7744L24.0939 22.0381L24.4921 22.8048L19.6538 25.3174L14.0622 21.3223L12.8005 21.9776L15.6223 27.4111L10.8647 29.8819L2.36523 13.5156L9.02802 10.0554C10.9541 9.05513 12.7456 8.65676 14.375 8.95127C15.2412 9.10784 15.9967 9.45417 16.6401 9.97888L15.0545 6.92572L19.8336 4.44376L25.3921 15.147C25.8137 15.9083 26.2618 16.3023 26.7024 16.455C27.134 16.6046 27.6704 16.561 28.3596 16.2031C29.0567 15.8411 29.4059 15.4231 29.534 14.9801C29.6592 14.5473 29.5751 13.912 29.1072 13.011L23.6332 2.47052L28.3908 -0.000244141L33.8758 10.5614C34.5061 11.7752 34.8023 12.9913 34.7358 14.2013L34.7357 14.2033C34.665 15.408 34.2406 16.5152 33.4784 17.5151C32.7193 18.511 31.668 19.3465 30.3481 20.032C28.3547 21.0673 26.4579 21.4068 24.6883 20.9637C22.9102 20.5186 21.5419 19.3613 20.5811 17.5675L20.5778 17.5614L18.894 14.3189C18.9197 14.6039 18.9212 14.8862 18.8976 15.1655C18.8278 16.0606 18.4995 16.9311 17.9414 17.7744ZM24.9081 15.4065L19.5993 5.18425L15.7949 7.15999L21.0652 17.3082C21.9652 18.9884 23.2173 20.0293 24.8217 20.431C26.426 20.8326 28.1838 20.5372 30.095 19.5447C31.3595 18.8879 32.3417 18.1004 33.0417 17.1822C33.7416 16.2639 34.1235 15.2602 34.1874 14.1712C34.2476 13.0751 33.9813 11.9562 33.3884 10.8145L28.1565 0.740248L24.3737 2.70479L29.5946 12.7579C30.0887 13.7093 30.2443 14.5009 30.0616 15.1327C29.8788 15.7645 29.3959 16.2837 28.6127 16.6905C27.0608 17.4964 25.8259 17.0684 24.9081 15.4065ZM13.7708 16.0861C13.8907 15.694 13.8475 15.2309 13.5512 14.6605C13.255 14.0901 12.9011 13.7883 12.5113 13.6609L12.5064 13.6593C12.1275 13.5315 11.6484 13.5697 11.022 13.895L9.11681 14.8844L10.8065 18.1381L12.7117 17.1486C13.3526 16.8158 13.6598 16.4494 13.7708 16.0861ZM10.5723 18.8785L8.37632 14.6501L10.7689 13.4076C11.4802 13.0382 12.1179 12.9486 12.6819 13.1389C13.2423 13.3221 13.6946 13.7449 14.0386 14.4074C14.3826 15.0698 14.4684 15.683 14.296 16.2468C14.127 16.7998 13.6833 17.2629 12.9648 17.636L10.5723 18.8785Z" fill="#C4C4C4"></path> <path d="M0 29.2979H30.7544V32.593H0V29.2979Z" fill="#C4C4C4"></path> <path d="M4.39355 32.5918H26.361V39.182H4.39355V32.5918Z" fill="#C4C4C4"></path> <path d="M2.44727 32.8418H28.3082V35.6369H2.44727V32.8418Z" fill="#C4C4C4" stroke="#D5D5D5" stroke-width="0.5"></path> </g> <defs> <clipPath id="clip0"> <rect width="37" height="40" fill="white"></rect> </clipPath> </defs> </svg> 