<?xml version="1.0" encoding="UTF-8"?> <svg xmlns="http://www.w3.org/2000/svg" width="49" height="36" viewBox="0 0 49 36" fill="none"> <path fill-rule="evenodd" clip-rule="evenodd" d="M15.3201 21.1413C13.2275 22.6678 10.4276 22.8667 9.28959 22.8667C1.37823 22.8667 0 18.2881 0 15.5944H4.34647C4.34647 16.8217 5.00555 19.1255 8.96084 19.1255C11.1191 19.1255 13.5191 18.5873 13.5191 16.311C13.5191 14.6062 11.869 14.1871 9.56145 13.618L5.18653 12.5423C2.10053 11.7948 0.328751 9.96529 0.328751 6.67405C0.328751 4.27941 1.65087 0 8.69452 0C11.9473 0 14.0336 1.0442 15.3201 2.42463V0.567484H19.5481V12.3031L24.8784 6.19417H30.0649L24.4011 12.4207L30.2167 22.2992H25.1495L21.3104 15.3844L19.5481 17.2084L19.5433 22.2992H15.3201V21.1413ZM6.86671 8.61886L12.1686 9.90774C13.3019 10.1927 14.3948 10.5439 15.3202 11.0837V7.03243H12.7969C12.6791 6.04585 12.318 3.7404 8.36269 3.7404C6.6241 3.7404 4.55597 4.39944 4.55597 6.34498C4.55597 8.04901 5.96422 8.40971 6.86671 8.61886Z" fill="#C4C4C4"></path> <path d="M2.9495 35.0869C2.49503 35.0869 2.14358 35.0501 1.89433 34.9764V33.6923C2.08127 33.7723 2.26239 33.8123 2.4377 33.8123C2.77004 33.8123 3.01181 33.6751 3.1622 33.4007L3.19377 33.3396L0 27.7667H1.9043L3.95981 31.7945L5.51349 27.7667H7.34301L4.58626 33.77C4.45748 34.0553 4.29048 34.296 4.0836 34.4935C3.87589 34.6911 3.66818 34.84 3.45964 34.9388C3.2511 35.0383 3.08077 35.0869 2.9495 35.0869" fill="#C4C4C4"></path> <path d="M12.1475 34.9769H10.6594V32.7764C10.5099 32.8579 10.2748 32.9606 9.95238 33.0837C9.63085 33.2068 9.30599 33.2679 8.97946 33.2679C8.38375 33.2679 7.91349 33.1198 7.56952 32.8227C7.22472 32.5248 7.05273 32.0521 7.05273 31.4014V29.6353H8.54161V31.3614C8.54161 31.8428 8.86481 32.0842 9.51037 32.0842C9.70978 32.0842 9.9233 32.0427 10.1526 31.9604C10.3811 31.878 10.5498 31.8091 10.6594 31.7534V29.6353H12.1475V34.9769Z" fill="#C4C4C4"></path> <path fill-rule="evenodd" clip-rule="evenodd" d="M18.5012 34.5384C18.4455 34.4248 18.4172 34.2225 18.4172 33.9317V31.0398C18.4172 30.6376 18.2934 30.3217 18.0475 30.0913C17.7999 29.8608 17.5075 29.704 17.1701 29.6201C16.832 29.537 16.4947 29.4955 16.159 29.4955C15.7037 29.4955 15.3032 29.5417 14.9576 29.6342C14.612 29.7267 14.317 29.9094 14.0736 30.183C13.8301 30.4566 13.6822 30.8501 13.6282 31.3636H15.0631C15.0939 31.1495 15.1728 30.9724 15.2982 30.8313C15.4229 30.691 15.6505 30.6212 15.9795 30.6212C16.2587 30.6212 16.4922 30.6596 16.6791 30.7364C16.866 30.8148 16.9591 30.9834 16.9591 31.2428C16.9591 31.4788 16.7855 31.6191 16.4373 31.6638L15.0963 31.8543C14.7657 31.9005 14.4782 31.9915 14.2339 32.1279C13.9897 32.2635 13.7969 32.4532 13.6565 32.6946C13.5161 32.9369 13.4463 33.2254 13.4463 33.5609C13.4463 33.9081 13.5277 34.199 13.6889 34.4326C13.8517 34.667 14.0636 34.8394 14.3262 34.95C14.5879 35.0613 14.8695 35.1169 15.1695 35.1169C15.6165 35.1169 15.9729 35.0456 16.2396 34.9053C16.5063 34.7642 16.7605 34.5768 17.0015 34.3424C17.0231 34.5635 17.0696 34.7759 17.1386 34.9766H18.7471V34.7658C18.6391 34.7273 18.5576 34.6521 18.5012 34.5384ZM15.9455 32.6673C16.4581 32.5921 16.7971 32.4948 16.9591 32.3757V33.0593C16.9591 33.2678 16.896 33.452 16.7689 33.6119C16.6409 33.7718 16.4756 33.8949 16.2712 33.9819C16.0668 34.0682 15.8525 34.1121 15.629 34.1121C15.4537 34.1121 15.295 34.0595 15.1512 33.9569C15.0067 33.8526 14.9352 33.6911 14.9352 33.47C14.9352 33.2858 14.9784 33.1408 15.0656 33.035C15.1521 32.9284 15.2675 32.8492 15.4113 32.7967C15.555 32.7449 15.7328 32.7018 15.9455 32.6673Z" fill="#C4C4C4"></path> <path d="M24.5853 33.0278C24.5678 33.2065 24.5188 33.4072 24.4357 33.6322C24.3543 33.8572 24.2172 34.0837 24.0253 34.3127C23.8342 34.5416 23.57 34.7328 23.2335 34.8865C22.8962 35.0393 22.4857 35.1169 22.0005 35.1169C21.4962 35.1169 21.0716 35.0362 20.7268 34.8739C20.382 34.7117 20.1128 34.5008 19.9176 34.239C19.7223 33.9779 19.5844 33.6934 19.5038 33.3861C19.4216 33.078 19.3809 32.7691 19.3809 32.4563C19.3809 31.8653 19.4764 31.3471 19.6658 30.9034C19.8561 30.4605 20.1527 30.114 20.5582 29.8671C20.9636 29.6186 21.4763 29.4955 22.0969 29.4955C22.4517 29.4955 22.8106 29.5551 23.1737 29.6758C23.5359 29.7957 23.8533 30.0082 24.1242 30.3139C24.395 30.6196 24.5529 31.0288 24.5961 31.5423H23.0864C22.9768 30.9669 22.6469 30.6792 22.0969 30.6792C21.8069 30.6792 21.5735 30.7576 21.3957 30.9128C21.2187 31.0672 21.0941 31.2616 21.0218 31.4945C20.9503 31.7273 20.9138 31.9711 20.9138 32.2266C20.9138 32.5159 20.9345 32.7817 20.9761 33.0239C21.0185 33.2669 21.124 33.4841 21.2951 33.6753C21.4654 33.8658 21.7213 33.9615 22.0628 33.9615C22.2896 33.9615 22.4799 33.9066 22.6328 33.7953C22.7865 33.6839 22.8987 33.5546 22.9693 33.4049C23.0407 33.2567 23.0765 33.1313 23.0765 33.0278H24.5853Z" fill="#C4C4C4"></path> <path d="M26.8439 34.9769V30.7602H25.1523V29.6353H30.0269V30.7602H28.3328V34.9769H26.8439Z" fill="#C4C4C4"></path> <path d="M35.9258 34.9769H34.4378V32.8689H32.3199V34.9769H30.8311V29.6353H32.3199V31.7432H34.4378V29.6353H35.9258V34.9769Z" fill="#C4C4C4"></path> <path d="M42.3565 34.9769H40.8684V31.7628L38.8569 34.9769H37.2617V29.6353H38.7506V32.8485L40.7612 29.6353H42.3565V34.9769Z" fill="#C4C4C4"></path> <path d="M45.1803 34.9769H43.6914V29.6353H45.1803V31.6625L47.0538 29.6353H48.9133L46.8819 31.704L48.9997 34.9769H47.1909L45.7959 32.687L45.1803 33.2907V34.9769Z" fill="#C4C4C4"></path> </svg> 