<?xml version="1.0" encoding="UTF-8"?> <svg xmlns="http://www.w3.org/2000/svg" width="1760" height="379" viewBox="0 0 1760 379" fill="none"> <path d="M208.281 186.369H225.832C247.43 186.369 257.651 198.844 257.651 220.34C257.651 241.834 247.816 254.309 225.832 254.309L208.281 254.5V186.369Z" fill="black"></path> <path d="M42.4271 14.9844H309.72C333.247 14.9844 352.148 33.7924 352.148 57.2065V323.206C352.148 346.428 333.247 365.428 309.72 365.428H42.4271C18.8998 365.428 0 346.619 0 323.206V57.2065C0 33.7922 18.8998 14.9844 42.4271 14.9844ZM77.1407 312.459H280.214V295.186H77.1407V312.459ZM155.824 228.015V209.398H101.44V185.985H160.645L160.453 166.792H77.1407V274.075H161.611V254.307H101.44V228.015H155.824ZM184.366 273.691H228.723C262.858 273.691 281.95 254.691 281.95 220.145C281.95 185.601 262.664 166.6 228.723 166.6H184.366V273.691ZM277.9 152.398C281.178 152.398 284.456 150.862 286.578 147.792C289.47 143.187 288.121 137.045 283.492 134.166L176.073 65.6508L68.655 134.166C64.0266 137.045 62.6767 143.187 65.5698 147.792C68.4626 152.398 74.6339 153.741 79.2624 150.862L175.881 89.2571L272.5 150.862C274.235 151.823 275.972 152.398 277.9 152.398Z" fill="black"></path> <path d="M427.68 203.774V15.2168H537.512V44.2714H467.802V95.2645H532.547V122.738H467.802V174.918H542.677V203.972H427.68V203.774Z" fill="black"></path> <path d="M654.314 203.777V112.859C654.314 96.4544 651.137 87.7576 636.042 87.7576C627.105 87.7576 615.782 94.2799 610.022 97.4424V203.58H570.301V57.9127H610.022V73.7245C614.593 67.9929 633.46 54.5527 649.35 54.5527C690.46 54.5527 693.638 83.2117 693.638 110.487V203.976L654.314 203.777Z" fill="black"></path> <path d="M781.188 263.663C760.929 263.663 742.657 260.5 728.357 255.559L734.515 226.505C750.601 229.866 767.086 233.028 776.223 233.028C794.893 233.028 804.822 227.295 804.822 205.159V197.451C804.227 197.648 794.296 206.345 779.799 206.345C756.759 206.345 719.617 197.055 719.617 132.424C719.617 82.4187 750.404 54.748 789.33 54.748C804.424 54.748 820.909 56.9221 844.347 60.8751V206.542C844.544 249.037 815.547 263.663 781.188 263.663ZM804.822 85.9765C800.649 85.1858 796.48 84.3953 789.728 84.3953C767.881 84.3953 758.744 105.742 758.744 132.424C758.744 165.629 770.463 177.686 786.948 177.686C794.098 177.686 799.657 174.523 804.622 172.151L804.822 85.9765Z" fill="black"></path> <path d="M877.926 203.79V2.58398H917.646V203.79H877.926Z" fill="black"></path> <path d="M951.609 203.773V58.1055H991.333V203.773H951.609Z" fill="black"></path> <path d="M1063.42 206.349C1045.54 206.349 1030.84 204.57 1016.35 200.025L1020.91 172.947C1033.62 175.318 1047.33 177.69 1060.64 177.69C1071.56 177.69 1082.48 173.54 1082.48 164.052C1082.48 141.322 1018.73 140.927 1018.73 99.2234C1018.73 71.5523 1041.17 55.543 1073.15 55.543C1089.43 55.543 1103.14 58.7054 1115.05 63.4487L1108.9 89.5385C1097.78 86.5737 1086.06 84.0045 1072.75 84.0045C1063.81 84.0045 1057.66 88.1549 1057.66 95.8634C1057.66 118 1121.41 117.802 1121.41 160.494C1121.41 190.537 1094.99 206.349 1063.42 206.349Z" fill="black"></path> <path d="M1230.25 203.79V112.872C1230.25 96.4674 1227.07 87.7706 1211.98 87.7706C1203.04 87.7706 1191.72 94.2933 1185.95 97.4554V203.593H1146.23V2.58398H1185.95V73.9354C1190.53 68.2034 1209.39 54.7633 1225.28 54.7633C1266.4 54.7633 1269.57 83.4223 1269.57 110.698V204.186H1230.25V203.79Z" fill="black"></path> <path d="M969.491 38.3438C980.13 38.3438 988.754 29.7604 988.754 19.1719C988.754 8.58359 980.13 0 969.491 0C958.852 0 950.227 8.58359 950.227 19.1719C950.227 29.7604 958.852 38.3438 969.491 38.3438Z" fill="black"></path> <path d="M702.347 252.006H427.867V228.486H707.509L702.347 252.006Z" fill="black"></path> <path d="M870.169 228.486H1759.15V252.006H865.004L870.169 228.486Z" fill="black"></path> <path d="M1349.42 204.564H1299.38V7.70508H1348.43C1397.69 7.70508 1432.84 38.9337 1432.84 105.541C1432.64 173.533 1400.86 204.564 1349.42 204.564ZM1347.64 38.3407H1333.33V174.323H1351.61C1382.59 174.323 1397.69 149.814 1397.69 108.309C1397.69 63.4419 1380.21 38.3407 1347.64 38.3407Z" fill="black"></path> <path d="M1505.12 207.728C1468.77 207.728 1449.52 177.289 1449.52 130.051C1449.52 80.2441 1471.95 49.0156 1507.12 49.0156C1546.64 49.0156 1563.72 79.8487 1563.72 128.668C1563.72 179.86 1539.68 207.728 1505.12 207.728ZM1506.31 79.058C1489.43 79.058 1483.28 103.369 1483.28 128.866C1483.28 155.944 1489.63 177.289 1506.71 177.289C1523.99 177.289 1529.16 155.548 1529.16 128.47C1529.16 103.369 1524.38 79.058 1506.31 79.058Z" fill="black"></path> <path d="M1725.41 204.565V108.903C1725.41 91.7077 1723.82 83.2087 1710.91 83.2087C1703.95 83.2087 1695.02 89.3361 1689.45 93.4864C1689.66 98.4275 1690.04 103.567 1690.04 108.31V204.565H1656.29V108.903C1656.29 91.7077 1654.3 83.2087 1641.79 83.2087C1634.04 83.2087 1626.09 90.1264 1621.13 93.8817V204.763H1586.97V52.5731H1621.13V68.7803C1625.1 62.6533 1641.19 49.0156 1654.5 49.0156C1672.17 49.0156 1681.11 57.1191 1685.88 68.7803C1691.44 61.8624 1708.92 49.0156 1724.02 49.0156C1758.38 49.0156 1759.76 79.058 1759.76 108.31V204.565H1725.41Z" fill="black"></path> <path d="M477.14 346.724C477.14 350.231 476.449 353.176 475.062 355.56C473.674 357.954 471.842 359.868 469.553 361.323C467.264 362.779 464.654 363.822 461.737 364.452C458.815 365.082 455.817 365.403 452.745 365.403H427.266V301.207H452.745C455.218 301.207 457.747 301.46 460.338 301.975C462.925 302.491 465.271 303.362 467.383 304.6C469.49 305.848 471.208 307.522 472.533 309.641C473.857 311.75 474.52 314.443 474.52 317.709C474.52 321.273 473.555 324.218 471.631 326.544C469.702 328.871 467.172 330.555 464.038 331.575V331.758C465.847 332.067 467.548 332.618 469.148 333.442C470.74 334.256 472.128 335.299 473.303 336.571C474.474 337.832 475.41 339.321 476.101 341.006C476.791 342.702 477.14 344.604 477.14 346.724ZM459.613 319.794C459.613 317.617 458.785 316.025 457.13 315.028C455.468 314.031 453.02 313.538 449.765 313.538H442.178V326.773H450.491C453.379 326.773 455.623 326.189 457.221 325.008C458.815 323.828 459.613 322.087 459.613 319.794ZM461.692 345.269C461.692 342.61 460.699 340.765 458.712 339.745C456.719 338.714 454.07 338.198 450.759 338.198H442.178V352.889H450.85C452.054 352.889 453.305 352.786 454.601 352.569C455.891 352.362 457.068 351.984 458.124 351.434C459.174 350.895 460.036 350.127 460.699 349.13C461.36 348.133 461.692 346.851 461.692 345.269Z" fill="black"></path> <path d="M500.172 365.403V378.008H487.527V352.35H498.552L517.882 301.207H532.88L552.033 352.35H563.422V378.008H550.772V365.403H500.172ZM514.451 352.35H535.592L525.024 318.614L514.451 352.35Z" fill="black"></path> <path d="M643.47 333.018C643.47 338.095 642.596 342.736 640.849 346.942C639.102 351.136 636.676 354.734 633.577 357.725C630.47 360.716 626.782 363.03 622.506 364.67C618.23 366.296 613.594 367.11 608.594 367.11C603.593 367.11 598.974 366.296 594.727 364.67C590.479 363.03 586.802 360.716 583.702 357.725C580.597 354.734 578.176 351.136 576.429 346.942C574.682 342.736 573.809 338.095 573.809 333.018C573.809 327.885 574.682 323.243 576.429 319.095C578.176 314.958 580.597 311.44 583.702 308.542C586.802 305.631 590.479 303.396 594.727 301.826C598.974 300.256 603.593 299.465 608.594 299.465C613.594 299.465 618.23 300.256 622.506 301.826C626.782 303.396 630.47 305.631 633.577 308.542C636.676 311.44 639.102 314.958 640.849 319.095C642.596 323.243 643.47 327.885 643.47 333.018ZM626.937 333.018C626.937 330.246 626.48 327.644 625.577 325.226C624.676 322.808 623.425 320.734 621.827 319.015C620.234 317.285 618.305 315.933 616.05 314.924C613.789 313.927 611.305 313.434 608.594 313.434C605.882 313.434 603.41 313.927 601.183 314.924C598.957 315.933 597.026 317.285 595.4 319.015C593.778 320.734 592.522 322.808 591.654 325.226C590.781 327.644 590.342 330.246 590.342 333.018C590.342 335.918 590.793 338.6 591.7 341.04C592.603 343.492 593.852 345.589 595.446 347.343C597.044 349.096 598.957 350.471 601.183 351.468C603.41 352.465 605.882 352.97 608.594 352.97C611.305 352.97 613.771 352.465 616.004 351.468C618.23 350.471 620.16 349.096 621.787 347.343C623.409 345.589 624.676 343.492 625.577 341.04C626.48 338.6 626.937 335.918 626.937 333.018Z" fill="black"></path> <path d="M699.486 365.403L685.482 342.736L672.021 365.403H653.586L675.995 331.494L655.396 301.207H674.008L685.933 321.158L697.677 301.207H715.661L695.422 331.494L718.549 365.403H699.486Z" fill="black"></path> <path d="M772.042 365.403V338.565H747.105V365.403H731.656V301.207H747.105V325.502H772.042V301.207H787.497V365.403H772.042Z" fill="black"></path> <path d="M874.591 333.018C874.591 338.095 873.717 342.736 871.97 346.942C870.223 351.136 867.797 354.734 864.698 357.725C861.592 360.716 857.903 363.03 853.627 364.67C849.351 366.296 844.716 367.11 839.715 367.11C834.714 367.11 830.095 366.296 825.848 364.67C821.6 363.03 817.923 360.716 814.823 357.725C811.718 354.734 809.297 351.136 807.55 346.942C805.803 342.736 804.93 338.095 804.93 333.018C804.93 327.885 805.803 323.243 807.55 319.095C809.297 314.958 811.718 311.44 814.823 308.542C817.923 305.631 821.6 303.396 825.848 301.826C830.095 300.256 834.714 299.465 839.715 299.465C844.716 299.465 849.351 300.256 853.627 301.826C857.903 303.396 861.592 305.631 864.698 308.542C867.797 311.44 870.223 314.958 871.97 319.095C873.717 323.243 874.591 327.885 874.591 333.018ZM858.058 333.018C858.058 330.246 857.601 327.644 856.7 325.226C855.797 322.808 854.546 320.734 852.948 319.015C851.356 317.285 849.426 315.933 847.171 314.924C844.91 313.927 842.426 313.434 839.715 313.434C837.003 313.434 834.531 313.927 832.304 314.924C830.078 315.933 828.149 317.285 826.521 319.015C824.9 320.734 823.644 322.808 822.777 325.226C821.902 327.644 821.463 330.246 821.463 333.018C821.463 335.918 821.914 338.6 822.821 341.04C823.724 343.492 824.974 345.589 826.567 347.343C828.165 349.096 830.078 350.471 832.304 351.468C834.531 352.465 837.003 352.97 839.715 352.97C842.426 352.97 844.892 352.465 847.125 351.468C849.351 350.471 851.281 349.096 852.908 347.343C854.53 345.589 855.797 343.492 856.7 341.04C857.601 338.6 858.058 335.918 858.058 333.018Z" fill="black"></path> <path d="M941.874 346.724C941.874 350.231 941.183 353.176 939.796 355.56C938.408 357.954 936.576 359.868 934.287 361.323C931.998 362.779 929.389 363.822 926.471 364.452C923.549 365.082 920.551 365.403 917.48 365.403H892V301.207H917.48C919.952 301.207 922.481 301.46 925.073 301.975C927.659 302.491 930.005 303.362 932.117 304.6C934.225 305.848 935.943 307.522 937.267 309.641C938.592 311.75 939.254 314.443 939.254 317.709C939.254 321.273 938.289 324.218 936.365 326.544C934.436 328.871 931.906 330.555 928.772 331.575V331.758C930.582 332.067 932.283 332.618 933.882 333.442C935.474 334.256 936.862 335.299 938.038 336.571C939.208 337.832 940.145 339.321 940.836 341.006C941.526 342.702 941.874 344.604 941.874 346.724ZM924.347 319.794C924.347 317.617 923.519 316.025 921.864 315.028C920.203 314.031 917.754 313.538 914.5 313.538H906.913V326.773H915.225C918.113 326.773 920.357 326.189 921.955 325.008C923.549 323.828 924.347 322.087 924.347 319.794ZM926.426 345.269C926.426 342.61 925.433 340.765 923.446 339.745C921.453 338.714 918.804 338.198 915.493 338.198H906.913V352.889H915.584C916.789 352.889 918.04 352.786 919.335 352.569C920.625 352.362 921.802 351.984 922.858 351.434C923.908 350.895 924.77 350.127 925.433 349.13C926.094 348.133 926.426 346.851 926.426 345.269Z" fill="black"></path> <path d="M968.012 365.403H951.473L976.324 301.207H992.133L1017.52 365.403H1000.63L984.363 322.602L968.012 365.403Z" fill="black"></path> <path d="M1041.53 336.296C1037.2 335.574 1033.71 333.924 1031.05 331.357C1028.4 328.79 1027.08 325.353 1027.08 321.066C1027.08 314.775 1029.5 309.894 1034.35 306.421C1039.2 302.938 1046.38 301.207 1055.9 301.207H1079.3V365.403H1063.94V342.095H1058.43C1053.91 342.095 1050.08 344.089 1046.96 348.087C1043.82 352.075 1041.74 357.852 1040.72 365.403H1023.91C1024.15 361.598 1024.82 358.149 1025.9 355.066C1026.99 351.984 1028.31 349.269 1029.88 346.907C1031.44 344.547 1033.24 342.507 1035.25 340.788C1037.27 339.058 1039.36 337.625 1041.53 336.479V336.296ZM1063.94 314.26H1057.25C1052.44 314.26 1048.95 314.901 1046.82 316.162C1044.68 317.434 1043.61 319.336 1043.61 321.88C1043.61 322.843 1043.84 323.771 1044.29 324.642C1044.74 325.524 1045.49 326.28 1046.54 326.911C1047.6 327.541 1049.02 328.057 1050.79 328.447C1052.57 328.847 1054.78 329.042 1057.43 329.042H1063.94V314.26Z" fill="black"></path> <path d="M1099.72 365.403V301.207H1142.73V314.26H1114.63V326.407H1141.19V338.84H1114.63V352.167H1144.36V365.403H1099.72Z" fill="black"></path> <path d="M1219.79 365.403L1220.15 319.978H1219.88L1203.26 365.403H1192.42L1176.24 319.978H1175.97L1176.33 365.403H1161.79V301.207H1183.77L1198.34 342.37H1198.69L1212.63 301.207H1234.96V365.403H1219.79Z" fill="black"></path> <path d="M1335 346.724C1335 350.231 1334.3 353.176 1332.92 355.56C1331.53 357.954 1329.7 359.868 1327.4 361.323C1325.12 362.779 1322.51 363.822 1319.6 364.452C1316.67 365.082 1313.67 365.403 1310.6 365.403H1285.12V301.207H1310.6C1313.08 301.207 1315.6 301.46 1318.19 301.975C1320.78 302.491 1323.13 303.362 1325.24 304.6C1327.35 305.848 1329.06 307.522 1330.39 309.641C1331.72 311.75 1332.38 314.443 1332.38 317.709C1332.38 321.273 1331.41 324.218 1329.48 326.544C1327.56 328.871 1325.03 330.555 1321.89 331.575V331.758C1323.71 332.067 1325.41 332.618 1327 333.442C1328.6 334.256 1329.98 335.299 1331.16 336.571C1332.33 337.832 1333.26 339.321 1333.96 341.006C1334.65 342.702 1335 344.604 1335 346.724ZM1317.47 319.794C1317.47 317.617 1316.64 316.025 1314.99 315.028C1313.32 314.031 1310.88 313.538 1307.62 313.538H1300.04V326.773H1308.35C1311.23 326.773 1313.48 326.189 1315.07 325.008C1316.67 323.828 1317.47 322.087 1317.47 319.794ZM1319.55 345.269C1319.55 342.61 1318.56 340.765 1316.56 339.745C1314.58 338.714 1311.93 338.198 1308.61 338.198H1300.04V352.889H1308.71C1309.91 352.889 1311.16 352.786 1312.46 352.569C1313.75 352.362 1314.92 351.984 1315.98 351.434C1317.03 350.895 1317.9 350.127 1318.56 349.13C1319.22 348.133 1319.55 346.851 1319.55 345.269Z" fill="black"></path> <path d="M1367.79 301.207V324.596H1371.77C1375.44 324.596 1378.92 324.905 1382.2 325.502C1385.49 326.109 1388.33 327.152 1390.74 328.63C1393.15 330.119 1395.07 332.091 1396.47 334.577C1397.89 337.052 1398.6 340.135 1398.6 343.825C1398.6 347.514 1397.89 350.712 1396.47 353.428C1395.07 356.155 1393.12 358.39 1390.65 360.143C1388.18 361.896 1385.31 363.214 1382.03 364.085C1378.74 364.967 1375.23 365.403 1371.5 365.403H1352.44V301.207H1367.79ZM1367.79 352.35H1372.94C1376.79 352.35 1379.43 351.652 1380.85 350.266C1382.26 348.867 1382.97 347.022 1382.97 344.73C1382.97 343.699 1382.81 342.759 1382.48 341.922C1382.14 341.074 1381.6 340.33 1380.85 339.699C1380.09 339.058 1379.07 338.565 1377.77 338.198C1376.48 337.832 1374.87 337.659 1372.94 337.659H1367.79V352.35ZM1417.94 301.207V365.403H1402.58V301.207H1417.94Z" fill="black"></path> <path d="M1448.64 301.207L1462.02 333.122L1474.84 301.207H1491.38L1469.6 351.434C1468.64 353.681 1467.53 355.765 1466.3 357.691C1465.08 359.628 1463.6 361.289 1461.87 362.688C1460.16 364.074 1458.13 365.174 1455.78 365.988C1453.43 366.812 1450.66 367.214 1447.48 367.214C1444.64 367.214 1442.3 366.985 1440.47 366.537C1438.63 366.079 1437.13 365.53 1435.95 364.887C1434.78 364.246 1433.83 363.57 1433.15 362.836C1432.45 362.103 1431.84 361.461 1431.29 360.911L1440.87 350.081C1441.65 350.929 1442.64 351.812 1443.86 352.752C1445.07 353.691 1446.45 354.161 1448.01 354.161C1449.21 354.161 1450.3 353.932 1451.27 353.486C1452.22 353.027 1453.13 352.259 1453.97 351.17L1431.48 301.207H1448.64Z" fill="black"></path> <path d="M1536.57 301.207H1551.84V365.403H1536.66V341.556H1525.1C1516.78 341.556 1510.75 339.333 1506.98 334.887C1503.22 330.452 1501.33 324.206 1501.33 316.162V301.207H1516.69V312.896C1516.69 315.623 1516.83 317.961 1517.1 319.932C1517.37 321.892 1517.88 323.508 1518.64 324.779C1519.38 326.051 1520.47 326.991 1521.89 327.587C1523.3 328.194 1525.16 328.493 1527.45 328.493H1536.57V301.207Z" fill="black"></path> <path d="M1587.89 344.008L1614.44 301.207H1631.89V365.403H1616.52V323.152H1616.25L1589.6 365.403H1572.25V301.207H1587.62V344.008H1587.89Z" fill="black"></path> <path d="M1679.68 314.443V365.403H1664.23V314.443H1646.17V301.207H1697.76V314.443H1679.68Z" fill="black"></path> <path d="M1712.02 301.207H1727.37V324.596H1733.15C1736.83 324.596 1740.32 324.929 1743.59 325.593C1746.87 326.258 1749.72 327.335 1752.13 328.813C1754.54 330.292 1756.44 332.262 1757.86 334.704C1759.28 337.156 1759.98 340.192 1759.98 343.825C1759.98 347.514 1759.28 350.712 1757.86 353.428C1756.44 356.155 1754.5 358.39 1752.04 360.143C1749.57 361.896 1746.7 363.214 1743.41 364.085C1740.13 364.967 1736.62 365.403 1732.89 365.403H1712.02V301.207ZM1727.37 337.659V352.35H1734.33C1738.19 352.35 1740.84 351.663 1742.28 350.312C1743.73 348.947 1744.44 347.114 1744.44 344.822C1744.44 342.519 1743.73 340.754 1742.28 339.516C1740.84 338.278 1738.19 337.659 1734.33 337.659H1727.37Z" fill="black"></path> </svg> 