<?xml version="1.0" encoding="UTF-8"?> <svg xmlns="http://www.w3.org/2000/svg" width="21" height="20" viewBox="0 0 21 20" fill="none"> <path d="M10.5977 0C7.88625 0 7.53725 0.0134228 6.47685 0.0536913C5.41645 0.107383 4.69162 0.268456 4.04732 0.52349C3.3896 0.778524 2.82584 1.11409 2.27551 1.67785C1.72517 2.22819 1.37618 2.79195 1.12115 3.44966C0.879535 4.08054 0.705039 4.81879 0.651348 5.87919C0.597656 6.9396 0.597656 7.28859 0.597656 10C0.597656 12.7114 0.611079 13.0604 0.651348 14.1208C0.705039 15.1812 0.866113 15.906 1.12115 16.5503C1.37618 17.2081 1.71175 17.7718 2.27551 18.3221C2.83927 18.8725 3.3896 19.2215 4.04732 19.4765C4.67819 19.7181 5.41645 19.8926 6.47685 19.9463C7.53725 20 7.88625 20 10.5977 20C13.3091 20 13.6581 19.9866 14.7185 19.9463C15.7789 19.8926 16.5037 19.7315 17.148 19.4765C17.8057 19.2215 18.3695 18.8859 18.9198 18.3221C19.4701 17.7718 19.8191 17.2081 20.0742 16.5503C20.3158 15.9195 20.4903 15.1812 20.544 14.1208C20.5977 13.0604 20.5977 12.7114 20.5977 10C20.5977 7.28859 20.5842 6.9396 20.544 5.87919C20.4903 4.81879 20.3292 4.09396 20.0742 3.44966C19.8191 2.79195 19.4836 2.22819 18.9198 1.67785C18.3695 1.12752 17.8057 0.778524 17.148 0.52349C16.5171 0.281879 15.7789 0.107383 14.7185 0.0536913C13.6446 0.0134228 13.3091 0 10.5977 0Z" fill="black"></path> <path fill-rule="evenodd" clip-rule="evenodd" d="M5.4707 9.98668C5.4707 7.15446 7.76601 4.85916 10.5982 4.85916C13.4304 4.85916 15.7257 7.15446 15.7257 9.98668C15.7257 12.8189 13.4304 15.1142 10.5982 15.1142C7.76601 15.1142 5.4707 12.8189 5.4707 9.98668ZM7.26917 9.99973C7.26917 11.8387 8.7591 13.3286 10.598 13.3286C12.437 13.3286 13.9269 11.8387 13.9269 9.99973C13.9269 8.16081 12.437 6.67087 10.598 6.67087C8.7591 6.67087 7.26917 8.16081 7.26917 9.99973Z" fill="white"></path> <path d="M15.9271 5.8524C16.5868 5.8524 17.1217 5.31754 17.1217 4.65777C17.1217 3.99799 16.5868 3.46313 15.9271 3.46313C15.2673 3.46313 14.7324 3.99799 14.7324 4.65777C14.7324 5.31754 15.2673 5.8524 15.9271 5.8524Z" fill="white"></path> </svg> 