<?xml version="1.0" encoding="UTF-8"?> <svg xmlns="http://www.w3.org/2000/svg" width="100" height="24" viewBox="0 0 100 24" fill="none"> <path d="M100 23.0907H97.282L92.6127 17.5465L88.013 23.0907H85.295L91.2885 15.9525L85.6435 9.23016H88.3615L92.6824 14.3586L97.0033 9.23016H99.7212L94.0762 15.9525L100 23.0907ZM76.932 23.7838C72.6808 23.7838 69.2659 20.3879 69.2659 16.1605C69.2659 11.933 72.6808 8.53713 76.932 8.53713C81.1832 8.53713 84.5981 11.933 84.5981 16.1605C84.5981 20.3879 81.1135 23.7838 76.932 23.7838ZM76.932 10.6162C73.8656 10.6162 71.3567 13.1111 71.3567 16.1605C71.3567 19.2098 73.8656 21.7047 76.932 21.7047C79.9985 21.7047 82.5074 19.2098 82.5074 16.1605C82.5074 13.1111 79.9985 10.6162 76.932 10.6162ZM59.1606 23.4373C54.8397 23.4373 53.5853 22.3977 53.5853 22.3977V2.29987H55.676V9.57668C56.4426 9.23016 57.5577 8.88365 59.1606 8.88365C63.4118 8.88365 66.8267 11.933 66.8267 16.1605C66.8267 20.3879 63.3421 23.4373 59.1606 23.4373ZM59.1606 10.9627C57.6971 10.9627 56.5123 11.5172 55.676 12.0716V20.6651C55.676 20.6651 56.7911 21.3582 59.1606 21.3582C62.2271 21.3582 64.736 19.2098 64.736 16.1605C64.736 13.1111 62.2271 10.9627 59.1606 10.9627ZM46.6161 2.29987H48.7069V23.0907H46.6161V2.29987ZM39.6469 2.29987H41.7377V23.0907H39.6469V2.29987ZM33.6534 5.4185C32.6778 5.4185 31.9111 4.65617 31.9111 3.68593C31.9111 2.71569 32.6778 1.95336 33.6534 1.95336C34.6291 1.95336 35.3957 2.71569 35.3957 3.68593C35.3957 4.65617 34.6291 5.4185 33.6534 5.4185ZM26.754 23.0907L19.4363 15.8139L26.057 9.23016H28.9841L22.3634 15.8139L29.681 23.0907H26.754ZM17.3456 23.0907V2.29987H19.4363V15.8139V23.0907H17.3456ZM14.0004 17.4772C14.0004 20.9424 11.2127 23.4373 6.82211 23.4373C3.96475 23.4373 1.73461 22.0512 0.0620117 20.4572L1.52554 18.8633C2.91937 20.18 4.52228 21.4275 6.75242 21.4275C9.26132 21.4275 11.9096 20.0414 11.9096 17.5465C11.9096 15.4674 10.237 14.1507 6.82211 13.1111C2.84968 11.8637 0.898313 10.2697 0.898313 7.15108C0.898313 4.10175 3.47691 1.67615 7.17057 1.67615C9.88855 1.67615 11.6308 2.8543 13.3034 4.30966L11.8399 5.90362C10.3067 4.65617 8.91287 3.75523 7.24026 3.75523C5.14951 3.75523 3.05876 5.14129 3.05876 7.08177C3.05876 8.88365 4.10413 9.99249 7.72811 11.1013C10.9339 12.0716 14.0004 13.6655 14.0004 17.4772ZM34.7685 23.0907H32.6778V9.23016H34.7685V23.0907Z" fill="black"></path> </svg> 