<?xml version="1.0" encoding="UTF-8"?> <svg xmlns="http://www.w3.org/2000/svg" width="116" height="26" viewBox="0 0 116 26" fill="none"> <path fill-rule="evenodd" clip-rule="evenodd" d="M16.1949 18.5322C16.1949 22.6152 12.9647 25.5771 7.83374 25.5771C4.8586 25.4932 2.03915 24.2197 0 22.0371L1.71597 20.127C3.32208 21.666 5.21184 23.1621 7.79979 23.1621C10.6744 23.1621 13.7737 21.5391 13.7737 18.625C13.7737 16.2051 11.863 14.626 7.84773 13.3818C3.27214 11.9736 0.947876 10.0635 0.947876 6.47168C0.947876 2.91699 3.93636 0 8.19432 0C11.3746 0 13.3642 1.36426 15.3009 3.1084L13.6139 4.99316C11.9159 3.47949 10.2978 2.45215 8.31218 2.45215C5.84909 2.45215 3.41797 4.05176 3.41797 6.35254C3.41797 8.43848 4.60855 9.7666 8.8116 11.0615C12.661 12.2559 16.1949 14.1045 16.1949 18.5322ZM36.9613 2.35449C36.9613 3.47363 37.8629 4.38184 38.9749 4.38184C39.5091 4.38184 40.0214 4.16797 40.3991 3.78809C40.7768 3.4082 40.9888 2.8916 40.9886 2.35449C40.9886 1.23438 40.087 0.327148 38.9749 0.327148C37.8629 0.327148 36.9613 1.23438 36.9613 2.35449ZM45.9327 0.743164H48.3599V25.1777H45.9327V0.743164ZM56.4503 0.743164H54.0232V25.1777H56.4503V0.743164ZM62.1136 24.3633C62.1136 24.3633 63.6079 25.585 68.586 25.585C73.4972 25.584 77.4855 21.9658 77.4855 17.0225C77.4855 12.0791 73.5002 8.47559 68.586 8.47559C67.1921 8.43848 65.8082 8.72266 64.5408 9.30859V0.743164H62.1136V24.3633ZM80.3181 17.0439C80.3178 21.9902 84.2999 26 89.2126 26C94.1256 26 98.1086 21.9912 98.1091 17.0449C98.1091 12.0996 94.1267 8.08984 89.214 8.08984C84.3013 8.08984 80.3185 12.0986 80.3181 17.0439ZM112.832 25.1826H116L108.995 16.7832L115.528 8.90625H112.377L107.416 14.8887L102.43 8.90625H99.2618L105.841 16.7949L98.8852 25.1826H102.035L107.419 18.6895L112.832 25.1826ZM89.2316 10.5088C86.6116 10.5088 84.2494 12.0967 83.2465 14.5342C82.2437 16.9707 82.7978 19.7754 84.6505 21.6406C86.5031 23.5059 89.2893 24.0635 91.7099 23.0537C94.1304 22.0439 95.7084 19.666 95.708 17.0283C95.7074 13.4277 92.8082 10.5098 89.2316 10.5088ZM68.586 10.9238C67.1365 10.9443 65.7268 11.4043 64.5408 12.2432V22.3262C65.7979 22.9414 67.1906 23.2217 68.586 23.1406C72.1598 23.1406 75.0583 20.627 75.0583 17.0322C75.0583 13.4375 72.1568 10.9229 68.586 10.9238ZM30.9624 25.1777L22.4725 16.6299L30.1584 8.8877H33.5903L25.9044 16.6299L34.3944 25.1777H30.9624ZM20.0403 0.743164V25.1777H22.4675V0.743164H20.0403ZM37.8473 25.1777H40.2744V8.8877H37.8473V25.1777Z" fill="black"></path> </svg> 