<?xml version="1.0" encoding="UTF-8"?> <svg xmlns="http://www.w3.org/2000/svg" width="24" height="20" viewBox="0 0 24 20" fill="none"> <path fill-rule="evenodd" clip-rule="evenodd" d="M1.46214 7.95998L22.0768 0.159436C23.025 -0.271533 23.8726 0.159436 23.5134 1.596L20.1518 18.2602C19.8933 19.4381 19.1894 19.7255 18.1981 19.1796L12.8254 15.2146C11.5612 16.4501 10.7567 17.2258 10.2396 17.7143C10.211 17.7383 10.1837 17.7615 10.1574 17.7838C9.7592 18.1211 9.5951 18.2602 9.19086 18.2602C8.77425 18.2602 8.5875 18.0016 8.34329 17.3408L6.36083 11.2784L1.20356 9.6695C0.37035 9.39655 0.341619 8.29039 1.46214 7.95998ZM18.9308 3.53536L7.19403 10.9049L9.19086 17.0247L9.69366 12.6432L19.4336 3.88014C19.6922 3.57846 19.5054 3.14749 18.9308 3.53536Z" fill="black"></path> </svg> 