<?xml version="1.0" encoding="UTF-8"?> <svg xmlns="http://www.w3.org/2000/svg" width="23" height="14" viewBox="0 0 23 14" fill="none"> <path fill-rule="evenodd" clip-rule="evenodd" d="M11.0561 13.715H12.4004C12.6294 13.6901 12.8452 13.5945 13.0184 13.4412C13.1443 13.2583 13.2089 13.0395 13.2027 12.8169C13.2027 12.8169 13.181 10.9112 14.0159 10.6264C14.8507 10.3417 15.9132 12.4664 17.0407 13.2878C17.4613 13.6406 18.0034 13.81 18.5477 13.7588L21.5617 13.715C21.5617 13.715 23.1446 13.6164 22.3965 12.3131C21.8067 11.2822 21.0478 10.3601 20.1523 9.58594C18.255 7.74594 18.5152 8.04166 20.7919 4.85451C22.1797 2.91594 22.7326 1.72213 22.5592 1.21832C22.2514 0.903558 21.8048 0.771118 21.3774 0.867846L17.9731 0.88975C17.8241 0.866418 17.6717 0.893365 17.5394 0.966417C17.4071 1.06551 17.3025 1.19759 17.2359 1.34975C16.8872 2.30797 16.4668 3.23796 15.9782 4.13166C14.4712 6.82594 13.8641 6.96832 13.6147 6.80404C13.0401 6.40975 13.181 5.23785 13.181 4.39451C13.181 1.78785 13.5605 0.692608 12.4546 0.407846C11.933 0.281852 11.397 0.226604 10.8609 0.24356C9.91044 0.154831 8.95201 0.259099 8.04205 0.550227C7.65175 0.747369 7.35902 1.18546 7.54333 1.21832C7.9302 1.25802 8.28723 1.4462 8.54077 1.74404C8.77512 2.24703 8.8902 2.79828 8.87686 3.35404C8.87686 3.35404 9.08286 6.43166 8.41067 6.81499C7.95531 7.07785 7.32649 6.54118 5.97127 4.0988C5.51628 3.24504 5.11436 2.3635 4.76784 1.45927C4.70432 1.30816 4.60798 1.17341 4.48595 1.06499C4.3317 0.952097 4.15352 0.877095 3.96555 0.845941L0.734709 0.867846C0.49484 0.866653 0.261672 0.947743 0.073362 1.09785C-0.0162543 1.28691 -0.0241077 1.50509 0.0516785 1.70023C0.0516785 1.70023 2.58865 7.91023 5.45087 11.0426C6.85582 12.7011 8.89564 13.6736 11.0561 13.715Z" fill="black"></path> </svg> 